<svg width="254" height="254" viewBox="0 0 254 254" fill="none" xmlns="http://www.w3.org/2000/svg">
<path d="M247.133 217.322L192.082 162.268C218.777 121.742 214.315 66.5765 178.69 30.9513H178.687C137.956 -9.77403 71.6824 -9.77684 30.9543 30.9513C-9.77383 71.6822 -9.77383 137.953 30.9543 178.687C51.3212 199.051 78.0696 209.232 104.821 209.232C124.867 209.232 144.911 203.513 162.271 192.079L217.322 247.13C221.439 251.247 226.834 253.307 232.226 253.307C237.619 253.307 243.017 251.247 247.133 247.133C255.364 238.9 255.364 225.555 247.133 217.322ZM60.7656 148.879C36.4731 124.583 36.4731 85.055 60.7656 60.7626C72.9132 48.6178 88.8656 42.5454 104.824 42.5454C120.779 42.5454 136.734 48.6178 148.879 60.7626C173.168 85.0522 173.171 124.569 148.893 148.862C148.887 148.867 148.882 148.87 148.879 148.876C148.873 148.881 148.87 148.884 148.868 148.89C124.564 173.168 85.0524 173.165 60.7656 148.879Z" fill="black"/>
</svg>
